<svg width="528" height="441" viewBox="0 0 528 441" fill="none" xmlns="http://www.w3.org/2000/svg">
<path d="M528 177C528 322.803 409.803 441 264 441C118.197 441 0 322.803 0 177C0 31.1967 118.197 227.5 264 227.5C409.803 227.5 528 31.1967 528 177Z" fill="#6E5836"/>
<path d="M391 269C391 266.239 393.239 264 396 264H412V269H391Z" fill="#D69A6E"/>
<rect width="18.5976" height="50.7449" rx="9.29882" transform="matrix(0.966506 -0.256645 0.261009 0.965336 387 221.773)" fill="#D69A6E"/>
<path d="M450 269C450 266.239 447.761 264 445 264H429V269H450Z" fill="#D69A6E"/>
<rect width="18.5976" height="50.7449" rx="9.29882" transform="matrix(-0.966506 -0.256645 -0.261009 0.965336 454.219 221.773)" fill="#D69A6E"/>
<path d="M408.48 183.162C409.47 177.295 414.55 173 420.5 173C426.45 173 431.53 177.295 432.52 183.162L442.592 242.869C444.898 256.538 434.362 269 420.5 269C406.638 269 396.102 256.538 398.408 242.869L408.48 183.162Z" fill="#F6D5A9"/>
<path d="M412.286 261H403.714C401.347 261 398 264.582 398 269H418C418 264.582 414.653 261 412.286 261Z" fill="white"/>
<path d="M404 269C404 266.667 404 262.778 406 262" stroke="black"/>
<path d="M413 269C413 266.667 413 262.778 411 262" stroke="black"/>
<path d="M437.286 261H428.714C426.347 261 423 264.582 423 269H443C443 264.582 439.653 261 437.286 261Z" fill="white"/>
<path d="M429 269C429 266.667 429 262.778 430 262" stroke="black"/>
<path d="M437 269C437 266.667 437 262.778 435 262" stroke="black"/>
<path d="M398.63 142.517C393.859 127.399 405.147 112 421 112C436.853 112 448.141 127.399 443.37 142.517L433.072 175.151C431.409 180.419 426.524 184 421 184C415.476 184 410.591 180.419 408.928 175.151L398.63 142.517Z" fill="#F6D5A9"/>
<circle cx="408" cy="145" r="3" fill="black"/>
<circle cx="434" cy="145" r="3" fill="black"/>
<ellipse cx="421" cy="177" rx="8" ry="4" fill="black"/>
<ellipse cx="402.649" cy="118.372" rx="7.53545" ry="7.37174" fill="#482712"/>
<ellipse cx="381.55" cy="144.91" rx="10.5496" ry="10.3204" fill="#482712"/>
<path d="M374.014 137.538L396.621 113.949L410 120L397.684 173.5L374.014 137.538Z" fill="#482712"/>
<path d="M371.184 170L371 144.91L390.684 150L397.684 169.5L371.184 170Z" fill="#482712"/>
<ellipse cx="384.685" cy="170" rx="13.5" ry="13" fill="#482712"/>
<ellipse rx="7.53545" ry="7.37174" transform="matrix(-1 0 0 1 439.535 118.372)" fill="#482712"/>
<ellipse rx="10.5496" ry="10.3204" transform="matrix(-1 0 0 1 460.634 144.91)" fill="#482712"/>
<path d="M468.17 137.538L445.564 113.949L432.184 120L444.5 173.5L468.17 137.538Z" fill="#482712"/>
<path d="M471 170L471.184 144.91L451.5 150L444.5 169.5L471 170Z" fill="#482712"/>
<ellipse rx="13.5" ry="13" transform="matrix(-1 0 0 1 457.5 170)" fill="#482712"/>
<path d="M37 282C37 277.029 41.0294 273 46 273H73V282H37Z" fill="#D69A6E"/>
<rect x="30" y="199.282" width="32" height="88" rx="16" transform="rotate(-15 30 199.282)" fill="#D69A6E"/>
<path d="M218 282C218 277.029 213.971 273 209 273H182V282H218Z" fill="#D69A6E"/>
<rect width="32" height="88" rx="16" transform="matrix(-0.965926 -0.258819 -0.258819 0.965926 224.686 199.282)" fill="#D69A6E"/>
<rect x="46" y="134" width="160" height="148" rx="65" fill="#F6D5A9"/>
<path d="M91 270H79C75.6863 270 71 275.373 71 282H99C99 275.373 94.3137 270 91 270Z" fill="white"/>
<path d="M79 282C79 279 79 274 81 273" stroke="black"/>
<path d="M90 282C90 279 90 274 88 273" stroke="black"/>
<path d="M176 270H164C160.686 270 156 275.373 156 282H184C184 275.373 179.314 270 176 270Z" fill="white"/>
<path d="M165 282C165 279 165 274 167 273" stroke="black"/>
<path d="M176 282C176 279 176 274 174 273" stroke="black"/>
<path d="M56.5548 65.3425C57.9369 48.7572 71.8014 36 88.4443 36H168.556C185.199 36 199.063 48.7572 200.445 65.3425L202.585 91.0173C205.5 125.998 177.894 156 142.792 156H114.208C79.1056 156 51.5001 125.998 54.4152 91.0173L56.5548 65.3425Z" fill="#F6D5A9"/>
<ellipse cx="116" cy="100.167" rx="3" ry="2.75" fill="black"/>
<ellipse cx="142" cy="100.167" rx="3" ry="2.75" fill="black"/>
<path d="M84.1194 142.506C89.7673 114.457 116.393 104.481 129 103V174.111C121.738 174.111 115.216 172.136 112.863 171.148C110.342 174.605 97.5342 183 93.7007 183C89.5541 183 77.0596 177.568 84.1194 142.506Z" fill="white"/>
<path d="M173.931 142.506C168.276 114.457 141.621 104.481 129 103V174.111C136.27 174.111 142.799 172.136 145.155 171.148C147.679 174.605 158.493 183 164.339 183C167.99 183 180.998 177.568 173.931 142.506Z" fill="white"/>
<path d="M129 103C116.393 104.481 89.7673 114.457 84.1194 142.506" stroke="black"/>
<path d="M108 168C109.833 170.167 116.8 174 128 174" stroke="black"/>
<path d="M148 168C146.167 170.167 139.2 174 128 174" stroke="black"/>
<path d="M129 112V118.5" stroke="black"/>
<path d="M139 127.5C139 122.253 134.747 118 129.5 118C124.253 118 120 122.253 120 127.5" stroke="black"/>
<path d="M120.5 124C118.9 124 118.833 120 119 118C119 120 121.5 120.833 122.5 121C122 121.833 120.5 123.6 120.5 124Z" stroke="black" stroke-linejoin="round"/>
<path d="M138.5 124C140.1 124 140.167 120 140 118C140 120 137.5 120.833 136.5 121C137 121.833 138.5 123.6 138.5 124Z" stroke="black" stroke-linejoin="round"/>
<path d="M129 103C141.607 104.481 168.233 114.457 173.881 142.506" stroke="black"/>
<circle cx="121.5" cy="103.5" r="2.5" fill="black"/>
<circle cx="136.5" cy="103.5" r="2.5" fill="black"/>
<path d="M136.619 101H121.381L119.476 105L125.667 111C125.984 111.333 127.095 112 129 112C130.905 112 132.016 111.333 132.333 111C132.651 110.667 138.524 105 138.524 105L136.619 101Z" fill="black"/>
<path d="M72 32H90.9762C98.0621 32 101.65 40.5317 96.6936 45.5957L77.7174 64.9844C72.703 70.1078 64 66.5575 64 59.3887V40C64 35.5817 67.5817 32 72 32Z" fill="#482712"/>
<path d="M184 32H165.024C157.938 32 154.35 40.5317 159.306 45.5957L178.283 64.9844C183.297 70.1078 192 66.5575 192 59.3887V40C192 35.5817 188.418 32 184 32Z" fill="#482712"/>
<path d="M244.05 365C244.05 361.686 246.736 359 250.05 359H269.297V365H244.05Z" fill="#D69A6E"/>
<rect width="22.7664" height="62.0755" rx="11.2789" transform="matrix(0.966558 -0.256449 0.261208 0.965283 239 306.838)" fill="#D69A6E"/>
<path d="M333.95 365C333.95 361.686 331.264 359 327.95 359H308.703V365H333.95Z" fill="#D69A6E"/>
<rect width="22.7639" height="62.0688" rx="11.2777" transform="matrix(-0.966558 -0.256449 -0.261208 0.965283 339 306.838)" fill="#D69A6E"/>
<path d="M261.948 244.305C263.431 230.482 275.097 220 289 220C302.903 220 314.569 230.482 316.052 244.305L326.151 338.44C327.673 352.627 316.556 365 302.288 365H275.712C261.444 365 250.327 352.627 251.849 338.44L261.948 244.305Z" fill="#F6D5A9"/>
<path d="M263 292.938C273.802 289.107 285.583 273.546 289.929 262L290 365C281.406 343.966 263.604 292.698 263 292.938Z" fill="#FCEEC0"/>
<path d="M315 291.982C304.795 288.101 294.034 273.698 289.929 262L290 365C298.119 343.689 314.429 291.739 315 291.982Z" fill="#FCEEC0"/>
<path d="M274.198 353H262.079C258.733 353 254 358.373 254 365H282.277C282.277 358.373 277.545 353 274.198 353Z" fill="white"/>
<path d="M262.079 365C262.079 362 262.079 357 264.099 356" stroke="black"/>
<path d="M273.188 365C273.188 362 273.188 357 271.168 356" stroke="black"/>
<path d="M316.198 353H304.079C300.733 353 296 358.373 296 365H324.277C324.277 358.373 319.545 353 316.198 353Z" fill="white"/>
<path d="M305.089 365C305.089 362 305.089 357 307.109 356" stroke="black"/>
<path d="M316.198 365C316.198 362 316.198 357 314.178 356" stroke="black"/>
<circle cx="287" cy="171.4" r="38.4" fill="#F6D5A9"/>
<path d="M287 133V237C269.688 237 255.734 230.447 247 223.801C245.092 222.35 243.433 220.893 242.043 219.5C240.815 218.269 239.796 217.087 239 216L241 212.75L249 165.145L287 133Z" fill="#F6D5A9"/>
<path d="M287 237C311.436 237 329.182 224.194 335 216.25L333 213L325 165.145L287 133V237Z" fill="#F6D5A9"/>
<path d="M237 211C238.6 209.8 242.833 203.667 243.5 201C244 205 244.3 212.2 243.5 213C242.7 213.8 238.167 212.5 237 211Z" fill="#F6D5A9"/>
<path d="M335.994 205C334.394 203.8 330.161 197.667 329.494 195C328.994 199 328.694 206.2 329.494 207C330.294 207.8 334.827 206.5 335.994 205Z" fill="#F6D5A9"/>
<path d="M336.994 211C335.394 209.8 331.161 203.667 330.494 201C329.994 205 329.694 212.2 330.494 213C331.294 213.8 335.827 212.5 336.994 211Z" fill="#F6D5A9"/>
<path d="M238 205C239.6 203.8 243.833 197.667 244.5 195C245 199 245.3 206.2 244.5 207C243.7 207.8 239.167 206.5 238 205Z" fill="#F6D5A9"/>
<path d="M251 200C249.5 203.5 245 207 241 207" stroke="black"/>
<path d="M250.5 192.5C248.5 195.5 247 196.5 244 197.5" stroke="black"/>
<path d="M251 208C249.167 211 245 212.5 241 212.5" stroke="black"/>
<path d="M322 200C323.5 203.5 328 207 332 207" stroke="black"/>
<path d="M322.5 192.5C324.5 195.5 326 196.5 329 197.5" stroke="black"/>
<path d="M322 208C323.833 211 328 212.5 332 212.5" stroke="black"/>
<ellipse cx="275" cy="183.167" rx="3" ry="2.75" fill="black"/>
<ellipse cx="301" cy="183.167" rx="3" ry="2.75" fill="black"/>
<path d="M288 221.387C284.779 224.465 278 223 276 218.938L272.5 209" stroke="black"/>
<path d="M287 221.387C290.221 224.465 297 223 299 218.938L302.5 209" stroke="black"/>
<path d="M280 217C280 215.343 281.343 214 283 214H293C294.657 214 296 215.343 296 217V218H280V217Z" fill="black"/>
<ellipse cx="288" cy="218" rx="8" ry="4" fill="black"/>
<path d="M268.709 109C273.209 109 272.709 142.957 272.709 142.957C261.224 145.849 252.077 167.37 249.928 169.5C239.591 164.873 259.209 109 268.709 109Z" fill="#482712"/>
<path d="M305.016 109C300.516 109 301.016 142.957 301.016 142.957C312.502 145.849 321.648 167.37 323.797 169.5C334.134 164.873 314.516 109 305.016 109Z" fill="#482712"/>
</svg>
