<svg width="28" height="28" viewBox="0 0 28 28" fill="none" xmlns="http://www.w3.org/2000/svg">
<path d="M20.0617 15.3334C21.0617 15.3334 21.9417 14.7867 22.3951 13.9601L27.1684 5.30675C27.6617 4.42675 27.0217 3.33341 26.0084 3.33341H6.27508L5.02174 0.666748H0.661743V3.33341H3.32841L8.12841 13.4534L6.32841 16.7067C5.35508 18.4934 6.63508 20.6667 8.66174 20.6667H24.6617V18.0001H8.66174L10.1284 15.3334H20.0617ZM7.54174 6.00008H23.7417L20.0617 12.6667H10.7017L7.54174 6.00008ZM8.66174 22.0001C7.19508 22.0001 6.00841 23.2001 6.00841 24.6667C6.00841 26.1334 7.19508 27.3334 8.66174 27.3334C10.1284 27.3334 11.3284 26.1334 11.3284 24.6667C11.3284 23.2001 10.1284 22.0001 8.66174 22.0001ZM21.9951 22.0001C20.5284 22.0001 19.3417 23.2001 19.3417 24.6667C19.3417 26.1334 20.5284 27.3334 21.9951 27.3334C23.4617 27.3334 24.6617 26.1334 24.6617 24.6667C24.6617 23.2001 23.4617 22.0001 21.9951 22.0001Z" fill="black"/>
</svg>
